{
  "accessors": [
    {
      "bufferView": 0,
      "componentType": 5126,
      "count": 3073,
      "type": "VEC3"
    },
    {
      "bufferView": 1,
      "componentType": 5126,
      "count": 3073,
      "type": "VEC4"
    },
    {
      "bufferView": 2,
      "componentType": 5126,
      "count": 3073,
      "type": "VEC3",
      "max": [
        0.009936952,
        0.00993695,
        0.0243395269
      ],
      "min": [
        -0.009936951,
        -0.009936968,
        -0.014672298
      ]
    },
    {
      "bufferView": 3,
      "componentType": 5123,
      "count": 14592,
      "type": "SCALAR"
    },
    {
      "bufferView": 4,
      "componentType": 5126,
      "count": 88,
      "type": "VEC2"
    },
    {
      "bufferView": 5,
      "componentType": 5126,
      "count": 88,
      "type": "VEC2"
    },
    {
      "bufferView": 6,
      "componentType": 5126,
      "count": 88,
      "type": "VEC3"
    },
    {
      "bufferView": 7,
      "componentType": 5126,
      "count": 88,
      "type": "VEC4"
    },
    {
      "bufferView": 8,
      "componentType": 5126,
      "count": 88,
      "type": "VEC3",
      "max": [
        0.5000001,
        1.0,
        0.500000238
      ],
      "min": [
        -0.5,
        -1.0,
        -0.50000006
      ]
    },
    {
      "bufferView": 9,
      "componentType": 5123,
      "count": 240,
      "type": "SCALAR"
    }
  ],
  "asset": {
    "generator": "glTF Tools for Unity",
    "version": "2.0"
  },
  "bufferViews": [
    {
      "buffer": 0,
      "byteLength": 36876
    },
    {
      "buffer": 0,
      "byteOffset": 36876,
      "byteLength": 49168
    },
    {
      "buffer": 0,
      "byteOffset": 86044,
      "byteLength": 36876
    },
    {
      "buffer": 0,
      "byteOffset": 122920,
      "byteLength": 29184
    },
    {
      "buffer": 0,
      "byteOffset": 152104,
      "byteLength": 704
    },
    {
      "buffer": 0,
      "byteOffset": 152808,
      "byteLength": 704
    },
    {
      "buffer": 0,
      "byteOffset": 153512,
      "byteLength": 1056
    },
    {
      "buffer": 0,
      "byteOffset": 154568,
      "byteLength": 1408
    },
    {
      "buffer": 0,
      "byteOffset": 155976,
      "byteLength": 1056
    },
    {
      "buffer": 0,
      "byteOffset": 157032,
      "byteLength": 480
    }
  ],
  "buffers": [
    {
      "uri": "Lightsaber.bin",
      "byteLength": 157512
    }
  ],
  "meshes": [
    {
      "primitives": [
        {
          "attributes": {
            "NORMAL": 0,
            "TANGENT": 1,
            "POSITION": 2
          },
          "indices": 3,
          "material": 0
        }
      ],
      "name": "Cylinder"
    },
    {
      "primitives": [
        {
          "attributes": {
            "TEXCOORD_0": 4,
            "TEXCOORD_1": 5,
            "NORMAL": 6,
            "TANGENT": 7,
            "POSITION": 8
          },
          "indices": 9,
          "material": 1
        }
      ],
      "name": "Cylinder"
    }
  ],
  "materials": [
    {
      "pbrMetallicRoughness": {
        "baseColorFactor": [
          1.0,
          0.0,
          0.0,
          1.0
        ],
        "metallicFactor": 0.0
      },
      "name": "Material"
    },
    {
      "pbrMetallicRoughness": {
        "baseColorFactor": [
          0.0419399478,
          0.0419399478,
          0.0419399478,
          1.0
        ],
        "metallicFactor": 0.0
      },
      "name": "Material.001"
    }
  ],
  "nodes": [
    {
      "mesh": 0,
      "rotation": [
        -3.161014E-08,
        0.7071069,
        0.707106769,
        3.1610135E-08
      ],
      "scale": [
        9.460604,
        9.460604,
        174.847885
      ],
      "translation": [
        0.0,
        2.56,
        -0.26
      ],
      "name": "Cylinder"
    },
    {
      "mesh": 1,
      "rotation": [
        -5.39965E-08,
        4.023313E-07,
        1.0,
        2.086315E-08
      ],
      "scale": [
        0.2865334,
        0.906544,
        0.2865334
      ],
      "translation": [
        0.0029999984,
        -0.009012032,
        -0.2710141
      ],
      "name": "Torus"
    },
    {
      "children": [
        0,
        1
      ],
      "scale": [
        0.1617889,
        0.1617889,
        0.1617889
      ],
      "name": "Lightsaber"
    }
  ],
  "scene": 0,
  "scenes": [
    {
      "nodes": [
        2
      ]
    }
  ]
}