{
  "accessors": [
    {
      "bufferView": 0,
      "componentType": 5126,
      "count": 3073,
      "type": "VEC3"
    },
    {
      "bufferView": 1,
      "componentType": 5126,
      "count": 3073,
      "type": "VEC4"
    },
    {
      "bufferView": 2,
      "componentType": 5126,
      "count": 3073,
      "type": "VEC3",
      "max": [
        0.009936952,
        0.00993695,
        0.0243395269
      ],
      "min": [
        -0.009936951,
        -0.009936968,
        -0.014672298
      ]
    },
    {
      "bufferView": 3,
      "componentType": 5123,
      "count": 14592,
      "type": "SCALAR"
    },
    {
      "bufferView": 4,
      "componentType": 5126,
      "count": 289419,
      "type": "VEC4"
    },
    {
      "bufferView": 5,
      "componentType": 5126,
      "count": 289419,
      "type": "VEC3"
    },
    {
      "bufferView": 6,
      "componentType": 5126,
      "count": 289419,
      "type": "VEC4"
    },
    {
      "bufferView": 7,
      "componentType": 5126,
      "count": 289419,
      "type": "VEC3",
      "max": [
        0.0148463016,
        0.0149072306,
        0.0709896
      ],
      "min": [
        -0.0151183205,
        -0.0150573915,
        -0.140806466
      ]
    },
    {
      "bufferView": 8,
      "componentType": 5123,
      "count": 1014972,
      "type": "SCALAR"
    }
  ],
  "asset": {
    "generator": "glTF Tools for Unity",
    "version": "2.0"
  },
  "bufferViews": [
    {
      "buffer": 0,
      "byteLength": 36876
    },
    {
      "buffer": 0,
      "byteOffset": 36876,
      "byteLength": 49168
    },
    {
      "buffer": 0,
      "byteOffset": 86044,
      "byteLength": 36876
    },
    {
      "buffer": 0,
      "byteOffset": 122920,
      "byteLength": 29184
    },
    {
      "buffer": 0,
      "byteOffset": 152104,
      "byteLength": 4630704
    },
    {
      "buffer": 0,
      "byteOffset": 4782808,
      "byteLength": 3473028
    },
    {
      "buffer": 0,
      "byteOffset": 8255836,
      "byteLength": 4630704
    },
    {
      "buffer": 0,
      "byteOffset": 12886540,
      "byteLength": 3473028
    },
    {
      "buffer": 0,
      "byteOffset": 16359568,
      "byteLength": 2029944
    }
  ],
  "buffers": [
    {
      "uri": "Lightsaber.bin",
      "byteLength": 18389512
    }
  ],
  "meshes": [
    {
      "primitives": [
        {
          "attributes": {
            "NORMAL": 0,
            "TANGENT": 1,
            "POSITION": 2
          },
          "indices": 3,
          "material": 0
        }
      ],
      "name": "Cylinder"
    },
    {
      "primitives": [
        {
          "attributes": {
            "COLOR_0": 4,
            "NORMAL": 5,
            "TANGENT": 6,
            "POSITION": 7
          },
          "indices": 8,
          "material": 1
        }
      ],
      "name": "Torus"
    }
  ],
  "materials": [
    {
      "pbrMetallicRoughness": {
        "baseColorFactor": [
          1.0,
          0.0,
          0.0,
          1.0
        ],
        "metallicFactor": 0.0
      },
      "name": "Material"
    },
    {
      "pbrMetallicRoughness": {
        "baseColorFactor": [
          0.0419399478,
          0.0419399478,
          0.0419399478,
          1.0
        ],
        "metallicFactor": 0.0
      },
      "name": "Material.001"
    }
  ],
  "nodes": [
    {
      "mesh": 0,
      "rotation": [
        -2.18556941E-08,
        0.0,
        0.0,
        1.0
      ],
      "scale": [
        15.1161671,
        15.1161671,
        279.372223
      ],
      "translation": [
        -1.01789279E-08,
        8.549021E-08,
        2.60257626
      ],
      "name": "Cylinder"
    },
    {
      "mesh": 1,
      "rotation": [
        -2.18556941E-08,
        0.0,
        0.0,
        1.0
      ],
      "scale": [
        19.6883926,
        19.6883926,
        19.6883926
      ],
      "translation": [
        0.00267783762,
        -0.003176584,
        -2.11815143
      ],
      "name": "Torus"
    },
    {
      "children": [
        0,
        1
      ],
      "scale": [
        0.1617889,
        0.1617889,
        0.1617889
      ],
      "name": "Lightsaber"
    }
  ],
  "scene": 0,
  "scenes": [
    {
      "nodes": [
        2
      ]
    }
  ]
}