{
  "accessors": [
    {
      "bufferView": 0,
      "componentType": 5126,
      "count": 88,
      "type": "VEC2"
    },
    {
      "bufferView": 1,
      "componentType": 5126,
      "count": 88,
      "type": "VEC2"
    },
    {
      "bufferView": 2,
      "componentType": 5126,
      "count": 88,
      "type": "VEC3"
    },
    {
      "bufferView": 3,
      "componentType": 5126,
      "count": 88,
      "type": "VEC4"
    },
    {
      "bufferView": 4,
      "componentType": 5126,
      "count": 88,
      "type": "VEC3",
      "max": [
        0.5000001,
        1.0,
        0.500000238
      ],
      "min": [
        -0.5,
        -1.0,
        -0.50000006
      ]
    },
    {
      "bufferView": 5,
      "componentType": 5123,
      "count": 240,
      "type": "SCALAR"
    },
    {
      "bufferView": 6,
      "componentType": 5126,
      "count": 515,
      "type": "VEC2"
    },
    {
      "bufferView": 7,
      "componentType": 5126,
      "count": 515,
      "type": "VEC2"
    },
    {
      "bufferView": 8,
      "componentType": 5126,
      "count": 515,
      "type": "VEC3"
    },
    {
      "bufferView": 9,
      "componentType": 5126,
      "count": 515,
      "type": "VEC4"
    },
    {
      "bufferView": 10,
      "componentType": 5126,
      "count": 515,
      "type": "VEC3",
      "max": [
        0.5,
        0.5,
        0.5
      ],
      "min": [
        -0.5,
        -0.5,
        -0.5
      ]
    },
    {
      "bufferView": 11,
      "componentType": 5123,
      "count": 2304,
      "type": "SCALAR"
    }
  ],
  "asset": {
    "generator": "glTF Tools for Unity",
    "version": "2.0"
  },
  "bufferViews": [
    {
      "buffer": 0,
      "byteLength": 704
    },
    {
      "buffer": 0,
      "byteOffset": 704,
      "byteLength": 704
    },
    {
      "buffer": 0,
      "byteOffset": 1408,
      "byteLength": 1056
    },
    {
      "buffer": 0,
      "byteOffset": 2464,
      "byteLength": 1408
    },
    {
      "buffer": 0,
      "byteOffset": 3872,
      "byteLength": 1056
    },
    {
      "buffer": 0,
      "byteOffset": 4928,
      "byteLength": 480
    },
    {
      "buffer": 0,
      "byteOffset": 5408,
      "byteLength": 4120
    },
    {
      "buffer": 0,
      "byteOffset": 9528,
      "byteLength": 4120
    },
    {
      "buffer": 0,
      "byteOffset": 13648,
      "byteLength": 6180
    },
    {
      "buffer": 0,
      "byteOffset": 19828,
      "byteLength": 8240
    },
    {
      "buffer": 0,
      "byteOffset": 28068,
      "byteLength": 6180
    },
    {
      "buffer": 0,
      "byteOffset": 34248,
      "byteLength": 4608
    }
  ],
  "buffers": [
    {
      "uri": "Lightsaber.bin",
      "byteLength": 38856
    }
  ],
  "meshes": [
    {
      "primitives": [
        {
          "attributes": {
            "TEXCOORD_0": 0,
            "TEXCOORD_1": 1,
            "NORMAL": 2,
            "TANGENT": 3,
            "POSITION": 4
          },
          "indices": 5,
          "material": 0
        }
      ],
      "name": "Cylinder"
    },
    {
      "primitives": [
        {
          "attributes": {
            "TEXCOORD_0": 6,
            "TEXCOORD_1": 7,
            "NORMAL": 8,
            "TANGENT": 9,
            "POSITION": 10
          },
          "indices": 11,
          "material": 1
        }
      ],
      "name": "Sphere"
    }
  ],
  "materials": [
    {
      "pbrMetallicRoughness": {
        "baseColorFactor": [
          0.0741766542,
          0.0741766542,
          0.0741766542,
          1.0
        ],
        "metallicFactor": 0.0,
        "roughnessFactor": 0.5
      },
      "name": "hilt"
    },
    {
      "pbrMetallicRoughness": {
        "baseColorFactor": [
          1.0,
          0.0,
          0.0,
          1.0
        ],
        "metallicFactor": 0.0,
        "roughnessFactor": 0.5
      },
      "name": "blade"
    }
  ],
  "nodes": [
    {
      "mesh": 0,
      "scale": [
        1.2141,
        0.169986144,
        1.2141
      ],
      "translation": [
        0.0,
        -0.87,
        0.0
      ],
      "name": "Cylinder (1)"
    },
    {
      "mesh": 0,
      "scale": [
        1.21404386,
        0.169997931,
        1.21404386
      ],
      "translation": [
        0.0,
        0.835,
        0.0
      ],
      "name": "Cylinder (2)"
    },
    {
      "mesh": 0,
      "scale": [
        0.87,
        3.11895013,
        0.87
      ],
      "translation": [
        0.0,
        4.05,
        0.0
      ],
      "name": "Cylinder (1)"
    },
    {
      "mesh": 1,
      "scale": [
        0.8633,
        0.3578983,
        0.8633
      ],
      "translation": [
        0.0,
        7.16,
        0.0
      ],
      "name": "Sphere"
    },
    {
      "children": [
        0,
        1,
        2,
        3
      ],
      "mesh": 0,
      "scale": [
        0.04879706,
        0.114699692,
        0.04879706
      ],
      "name": "Lightsaber"
    }
  ],
  "scene": 0,
  "scenes": [
    {
      "nodes": [
        4
      ]
    }
  ]
}